<svg width="36" height="36" viewBox="0 0 36 36" fill="none" xmlns="http://www.w3.org/2000/svg">
<circle cx="18" cy="18" r="18" fill="#F9690E" fill-opacity="0.1"/>
<circle cx="18" cy="18" r="17.5" stroke="#F9690E" stroke-opacity="0.2"/>
<path d="M22.054 17.7C22.342 17.7 22.582 17.796 22.774 17.988C22.966 18.168 23.062 18.402 23.062 18.69C23.062 18.978 22.966 19.218 22.774 19.41C22.582 19.59 22.342 19.68 22.054 19.68H19.534V22.038C19.534 22.374 19.42 22.65 19.192 22.866C18.976 23.082 18.7 23.19 18.364 23.19C18.028 23.19 17.746 23.082 17.518 22.866C17.302 22.65 17.194 22.374 17.194 22.038V19.68H14.728C14.44 19.68 14.2 19.584 14.008 19.392C13.816 19.2 13.72 18.96 13.72 18.672C13.72 18.384 13.816 18.15 14.008 17.97C14.2 17.79 14.44 17.7 14.728 17.7H17.194V15.018C17.194 14.682 17.302 14.406 17.518 14.19C17.746 13.974 18.034 13.866 18.382 13.866C18.718 13.866 18.994 13.974 19.21 14.19C19.426 14.406 19.534 14.682 19.534 15.018V17.7H22.054Z" fill="#F9690E"/>
</svg>
