<svg width="33" height="22" viewBox="0 0 33 22" fill="none" xmlns="http://www.w3.org/2000/svg">
<path d="M7.72503 21.2754C11.8107 21.2754 15.0366 17.9628 15.0366 13.8772C15.0366 9.79157 11.6811 6.479 7.59549 6.479C7.55462 6.479 7.49297 6.48454 7.4521 6.48523C9.06751 5.19886 11.0965 4.42371 13.3173 4.42371C14.3391 4.42371 15.1613 3.59522 15.1613 2.57416C15.1613 1.5531 14.5039 0.724611 13.4822 0.724611C6.23015 0.725304 0.500005 6.62516 0.500005 13.8772C0.500005 13.8786 0.500005 13.88 0.500005 13.8821C0.500005 17.9656 3.64078 21.2754 7.72503 21.2754Z" fill="#F9690E"/>
<path d="M25.0533 21.2754C29.1389 21.2754 32.3705 17.9628 32.3705 13.8772C32.3705 9.79157 29.0177 6.479 24.9314 6.479C24.8905 6.479 24.8303 6.48454 24.7894 6.48523C26.4048 5.19886 28.4345 4.42371 30.6553 4.42371C31.6771 4.42371 32.5 3.59522 32.5 2.57416C32.5 1.5531 31.8322 0.724611 30.8105 0.724611C23.5584 0.725304 17.8179 6.62516 17.8179 13.8772C17.8179 13.8786 17.8179 13.88 17.8179 13.8821C17.8179 17.9656 20.9691 21.2754 25.0533 21.2754Z" fill="#F9690E"/>
</svg>
